<svg width="25" height="24" viewBox="0 0 25 24" fill="none" xmlns="http://www.w3.org/2000/svg">
<path d="M3.8525 11.6029L10.6025 4.85286C10.7091 4.7535 10.8502 4.69941 10.9959 4.70198C11.1416 4.70455 11.2807 4.76358 11.3837 4.86664C11.4868 4.9697 11.5458 5.10874 11.5484 5.25447C11.551 5.40019 11.4969 5.54123 11.3975 5.64786L5.60844 11.4379L20.75 11.4379C20.8992 11.4379 21.0423 11.4971 21.1477 11.6026C21.2532 11.7081 21.3125 11.8512 21.3125 12.0004C21.3125 12.1495 21.2532 12.2926 21.1477 12.3981C21.0423 12.5036 20.8992 12.5629 20.75 12.5629L5.60844 12.5629L11.3975 18.3529C11.4969 18.4595 11.551 18.6005 11.5484 18.7463C11.5458 18.892 11.4868 19.031 11.3837 19.1341C11.2807 19.2371 11.1416 19.2962 10.9959 19.2987C10.8502 19.3013 10.7091 19.2472 10.6025 19.1479L3.8525 12.3979C3.74716 12.2924 3.688 12.1494 3.688 12.0004C3.688 11.8513 3.74716 11.7083 3.8525 11.6029Z" fill="white"/>
</svg>
