<svg width="24" height="24" viewBox="0 0 24 24" fill="none" xmlns="http://www.w3.org/2000/svg">
<path d="M3.3525 11.6029L10.1025 4.85286C10.2091 4.7535 10.3502 4.69941 10.4959 4.70198C10.6416 4.70455 10.7807 4.76358 10.8837 4.86664C10.9868 4.9697 11.0458 5.10874 11.0484 5.25447C11.051 5.40019 10.9969 5.54123 10.8975 5.64786L5.10844 11.4379L20.25 11.4379C20.3992 11.4379 20.5423 11.4971 20.6477 11.6026C20.7532 11.7081 20.8125 11.8512 20.8125 12.0004C20.8125 12.1495 20.7532 12.2926 20.6477 12.3981C20.5423 12.5036 20.3992 12.5629 20.25 12.5629L5.10844 12.5629L10.8975 18.3529C10.9969 18.4595 11.051 18.6005 11.0484 18.7463C11.0458 18.892 10.9868 19.031 10.8837 19.1341C10.7807 19.2371 10.6416 19.2962 10.4959 19.2987C10.3502 19.3013 10.2091 19.2472 10.1025 19.1479L3.3525 12.3979C3.24716 12.2924 3.188 12.1494 3.188 12.0004C3.188 11.8513 3.24716 11.7083 3.3525 11.6029Z" fill="white"/>
</svg>
