<svg width="24" height="24" viewBox="0 0 24 24" fill="none" xmlns="http://www.w3.org/2000/svg">
<path d="M19 22.0002H5V20.0002H19V22.0002ZM16 18.0002H8L10.18 10.0002H8V8.00025H10.72L10.79 7.74025C10.1002 7.44044 9.54981 6.89007 9.25 6.20025C8.58 4.68025 9.27 2.91025 10.79 2.25025C12.31 1.58025 14.08 2.27025 14.74 3.79025C14.8993 4.15058 14.9858 4.53884 14.9946 4.93271C15.0034 5.32659 14.9342 5.71832 14.7911 6.08538C14.648 6.45244 14.4338 6.7876 14.1607 7.0716C13.8877 7.3556 13.5612 7.58284 13.2 7.74025L13.27 8.00025H16V10.0002H13.82L16 18.0002Z" fill="#BD3193"/>
</svg>
