<svg width="24" height="24" viewBox="0 0 24 24" fill="none" xmlns="http://www.w3.org/2000/svg">
<path d="M3.9375 18.1309C5.42177 18.1309 6.625 16.9276 6.625 15.4434C6.625 13.9591 5.42177 12.7559 3.9375 12.7559C2.45323 12.7559 1.25 13.9591 1.25 15.4434C1.25 16.9276 2.45323 18.1309 3.9375 18.1309Z" stroke="#BD3193" stroke-width="0.5" stroke-linecap="round" stroke-linejoin="round"/>
<path d="M9.3125 18.1309C10.7968 18.1309 12 16.9276 12 15.4434C12 13.9591 10.7968 12.7559 9.3125 12.7559C7.82823 12.7559 6.625 13.9591 6.625 15.4434C6.625 16.9276 7.82823 18.1309 9.3125 18.1309Z" stroke="#BD3193" stroke-width="0.5" stroke-linecap="round" stroke-linejoin="round"/>
<path d="M14.6875 18.1309C16.1718 18.1309 17.375 16.9276 17.375 15.4434C17.375 13.9591 16.1718 12.7559 14.6875 12.7559C13.2032 12.7559 12 13.9591 12 15.4434C12 16.9276 13.2032 18.1309 14.6875 18.1309Z" stroke="#BD3193" stroke-width="0.5" stroke-linecap="round" stroke-linejoin="round"/>
<path d="M20.0625 18.1309C21.5468 18.1309 22.75 16.9276 22.75 15.4434C22.75 13.9591 21.5468 12.7559 20.0625 12.7559C18.5782 12.7559 17.375 13.9591 17.375 15.4434C17.375 16.9276 18.5782 18.1309 20.0625 18.1309Z" stroke="#BD3193" stroke-width="0.5" stroke-linecap="round" stroke-linejoin="round"/>
<path d="M15.75 5.86914L13.875 8.36914L12 5.86914L10.125 8.36914L8.25 5.86914V11.0186H15.75V5.86914Z" stroke="#BD3193" stroke-width="0.5" stroke-linecap="round" stroke-linejoin="round"/>
</svg>
