<svg width="24" height="24" viewBox="0 0 24 24" fill="none" xmlns="http://www.w3.org/2000/svg">
<path d="M20.6475 12.3971L13.8975 19.1471C13.7909 19.2465 13.6498 19.3006 13.5041 19.298C13.3584 19.2955 13.2193 19.2364 13.1163 19.1334C13.0132 19.0303 12.9542 18.8913 12.9516 18.7455C12.949 18.5998 13.0031 18.4588 13.1025 18.3521L18.8916 12.5621H3.75C3.60082 12.5621 3.45774 12.5029 3.35225 12.3974C3.24676 12.2919 3.1875 12.1488 3.1875 11.9996C3.1875 11.8505 3.24676 11.7074 3.35225 11.6019C3.45774 11.4964 3.60082 11.4371 3.75 11.4371H18.8916L13.1025 5.64714C13.0031 5.54051 12.949 5.39947 12.9516 5.25375C12.9542 5.10802 13.0132 4.96898 13.1163 4.86592C13.2193 4.76286 13.3584 4.70383 13.5041 4.70126C13.6498 4.69869 13.7909 4.75278 13.8975 4.85214L20.6475 11.6021C20.7528 11.7076 20.812 11.8506 20.812 11.9996C20.812 12.1487 20.7528 12.2917 20.6475 12.3971Z" fill="#BD3193"/>
</svg>
