<svg width="24" height="24" viewBox="0 0 24 24" fill="none" xmlns="http://www.w3.org/2000/svg">
<path d="M3.615 18.0246C3.16833 18.0246 2.78733 17.8673 2.472 17.5526C2.15733 17.2373 2 16.8563 2 16.4096V15.0246C2 14.8826 2.04767 14.7636 2.143 14.6676C2.239 14.5723 2.358 14.5246 2.5 14.5246C2.642 14.5246 2.761 14.5723 2.857 14.6676C2.95233 14.7636 3 14.8826 3 15.0246V16.4096C3 16.589 3.05767 16.7363 3.173 16.8516C3.28833 16.967 3.43567 17.0246 3.615 17.0246H20.385C20.5643 17.0246 20.7117 16.967 20.827 16.8516C20.9423 16.7363 21 16.589 21 16.4096V15.0246C21 14.8826 21.0477 14.7636 21.143 14.6676C21.239 14.5723 21.358 14.5246 21.5 14.5246C21.642 14.5246 21.761 14.5723 21.857 14.6676C21.9523 14.7636 22 14.8826 22 15.0246V16.4096C22 16.8563 21.8427 17.2373 21.528 17.5526C21.2133 17.8673 20.8323 18.0246 20.385 18.0246H3.615ZM7.619 15.2046C6.90567 15.2046 6.33767 15.0116 5.915 14.6256C5.49367 14.239 5.283 13.7176 5.283 13.0616C5.283 12.3616 5.53133 11.794 6.028 11.3586C6.52467 10.9233 7.17233 10.7056 7.971 10.7056C8.31567 10.7056 8.654 10.7413 8.986 10.8126C9.31733 10.8833 9.606 10.9853 9.852 11.1186V10.5766C9.852 9.93397 9.69467 9.44731 9.38 9.11664C9.06533 8.78597 8.60267 8.62064 7.992 8.62064C7.704 8.62064 7.43467 8.65831 7.184 8.73364C6.93333 8.80831 6.68433 8.92497 6.437 9.08364C6.33767 9.14964 6.22933 9.18431 6.112 9.18764C5.99533 9.19164 5.894 9.15464 5.808 9.07664C5.72133 8.99864 5.67767 8.90097 5.677 8.78364C5.67567 8.66631 5.72233 8.57297 5.817 8.50364C6.13033 8.25897 6.462 8.08397 6.812 7.97864C7.16267 7.87331 7.55167 7.82064 7.979 7.82064C8.90967 7.82064 9.602 8.05997 10.056 8.53864C10.51 9.01731 10.7367 9.72997 10.736 10.6766V14.5436C10.736 14.667 10.6943 14.7703 10.611 14.8536C10.527 14.9383 10.4233 14.9806 10.3 14.9806C10.1733 14.9806 10.068 14.9386 9.984 14.8546C9.9 14.7706 9.858 14.665 9.858 14.5376V13.9766H9.763C9.53367 14.3866 9.239 14.694 8.879 14.8986C8.519 15.1033 8.099 15.2056 7.619 15.2056M8.131 11.4756C7.53367 11.4756 7.061 11.6156 6.713 11.8956C6.36633 12.1736 6.193 12.5556 6.193 13.0416C6.193 13.465 6.32733 13.8 6.596 14.0466C6.86533 14.2933 7.21933 14.4166 7.658 14.4166C8.294 14.4166 8.81867 14.178 9.232 13.7006C9.64533 13.2233 9.852 12.6216 9.852 11.8956C9.632 11.7623 9.36533 11.659 9.052 11.5856C8.73867 11.5123 8.43167 11.4756 8.131 11.4756ZM15.921 15.2246C15.3917 15.2246 14.9383 15.113 14.561 14.8896C14.183 14.667 13.9057 14.3953 13.729 14.0746H13.673V14.7266C13.673 14.8366 13.6343 14.9306 13.557 15.0086C13.4797 15.0866 13.3857 15.1253 13.275 15.1246C13.165 15.1246 13.067 15.0816 12.981 14.9956C12.895 14.9096 12.8517 14.8116 12.851 14.7016V5.42264C12.851 5.29597 12.8943 5.18931 12.981 5.10264C13.0677 5.01597 13.174 4.97331 13.3 4.97464C13.4267 4.97464 13.5333 5.01764 13.62 5.10364C13.7067 5.18964 13.7493 5.29631 13.748 5.42364V8.31864L13.673 9.31864H13.729C13.933 9.00531 14.2197 8.73531 14.589 8.50864C14.9577 8.28197 15.408 8.16864 15.94 8.16864C16.8147 8.16864 17.5153 8.49431 18.042 9.14564C18.5687 9.79697 18.832 10.661 18.832 11.7376C18.832 12.789 18.573 13.633 18.055 14.2696C17.5363 14.9063 16.825 15.2246 15.921 15.2246ZM15.85 9.04964C15.2087 9.04964 14.6853 9.30831 14.28 9.82564C13.8753 10.343 13.673 10.9786 13.673 11.7326C13.673 12.49 13.8757 13.1233 14.281 13.6326C14.6857 14.1413 15.2087 14.3956 15.85 14.3956C16.4913 14.3956 16.993 14.151 17.355 13.6616C17.717 13.1716 17.898 12.5283 17.898 11.7316C17.898 10.9356 17.717 10.2896 17.355 9.79364C16.993 9.29764 16.4913 9.04964 15.85 9.04964Z" fill="#BD3193"/>
</svg>
