<svg width="24" height="24" viewBox="0 0 24 24" fill="none" xmlns="http://www.w3.org/2000/svg">
<path d="M20.3101 16.4398L14.5401 6.46977C14.3445 6.1295 14.0836 5.83124 13.7724 5.59213C13.4612 5.35302 13.1058 5.17778 12.7267 5.07649C12.3475 4.9752 11.9521 4.94984 11.5631 5.00189C11.1741 5.05394 10.7992 5.18236 10.4601 5.37977C10.0001 5.63977 9.63006 5.99977 9.36006 6.46977L3.60006 16.4398C3.40244 16.7773 3.27382 17.1506 3.22168 17.5382C3.16953 17.9258 3.1949 18.3199 3.29631 18.6976C3.39771 19.0754 3.57314 19.4292 3.8124 19.7385C4.05165 20.0479 4.34998 20.3066 4.69006 20.4998C5.14006 20.7798 5.65006 20.9198 6.18006 20.9198H17.7301C18.5229 20.9166 19.2821 20.5989 19.8408 20.0364C20.3995 19.4739 20.7122 18.7126 20.7101 17.9198C20.7101 17.3998 20.5701 16.8898 20.3101 16.4398ZM5.37006 17.4298L11.1101 7.46977C11.3801 6.99977 12.0001 6.81977 12.4601 7.09977C12.6201 7.17977 12.7501 7.30977 12.8401 7.46977L18.5801 17.4298C18.8501 17.9098 18.6901 18.4998 18.2101 18.7898C18.0601 18.8798 17.8901 18.9298 17.7201 18.9298H6.21006C5.66006 18.9198 5.21006 18.4698 5.22006 17.9198C5.22006 17.7498 5.26006 17.5798 5.35006 17.4298H5.37006ZM11.9701 13.4498C10.8701 13.4498 10.0001 12.5598 10.0001 11.4598C10.0001 10.3498 10.8701 9.45977 11.9701 9.45977C12.5005 9.45977 13.0092 9.67049 13.3843 10.0456C13.7593 10.4206 13.9701 10.9293 13.9701 11.4598C13.9701 12.5598 13.0701 13.4498 11.9501 13.4498H11.9701ZM9.46006 17.9298C8.36006 17.9298 7.47006 17.0398 7.47006 15.9398C7.47006 14.8398 8.36006 13.9498 9.46006 13.9498C10.5601 13.9498 11.4601 14.8398 11.4601 15.9398C11.4601 17.0398 10.5601 17.9298 9.46006 17.9298ZM14.4401 17.9298C13.9131 17.9271 13.4084 17.7166 13.0358 17.344C12.6632 16.9714 12.4527 16.4667 12.4501 15.9398C12.4527 15.4128 12.6632 14.9082 13.0358 14.5355C13.4084 14.1629 13.9131 13.9524 14.4401 13.9498C15.5401 13.9498 16.4401 14.8398 16.4401 15.9398C16.4401 17.0398 15.5401 17.9298 14.4401 17.9298Z" fill="#BD3193"/>
</svg>
