<svg width="24" height="24" viewBox="0 0 24 24" fill="none" xmlns="http://www.w3.org/2000/svg">
<path fill-rule="evenodd" clip-rule="evenodd" d="M6 3.5C6 3.36739 6.05268 3.24021 6.14645 3.14645C6.24021 3.05268 6.36739 3 6.5 3H17.5C17.6326 3 17.7598 3.05268 17.8536 3.14645C17.9473 3.24021 18 3.36739 18 3.5V4H20.5C20.6326 4 20.7598 4.05268 20.8536 4.14645C20.9473 4.24021 21 4.36739 21 4.5V7.5C21 8.16304 20.7366 8.79893 20.2678 9.26777C19.7989 9.73661 19.163 10 18.5 10H17.6585C16.888 12.18 14.8935 13.782 12.5 13.9795V17H16C16.1326 17 16.2598 17.0527 16.3536 17.1464C16.4473 17.2402 16.5 17.3674 16.5 17.5V20.5C16.5 20.6326 16.4473 20.7598 16.3536 20.8536C16.2598 20.9473 16.1326 21 16 21H8C7.86739 21 7.74021 20.9473 7.64645 20.8536C7.55268 20.7598 7.5 20.6326 7.5 20.5V17.5C7.5 17.3674 7.55268 17.2402 7.64645 17.1464C7.74021 17.0527 7.86739 17 8 17H11.5V13.9795C9.107 13.782 7.112 12.18 6.3415 10H5.5C4.83696 10 4.20107 9.73661 3.73223 9.26777C3.26339 8.79893 3 8.16304 3 7.5V4.5C3 4.36739 3.05268 4.24021 3.14645 4.14645C3.24021 4.05268 3.36739 4 3.5 4H6V3.5ZM17 8V4H7V8C7 10.7615 9.2385 13 12 13C14.7615 13 17 10.7615 17 8ZM18 5V9H18.5C18.8978 9 19.2794 8.84196 19.5607 8.56066C19.842 8.27936 20 7.89782 20 7.5V5H18ZM4 5H6V9H5.5C5.10218 9 4.72064 8.84196 4.43934 8.56066C4.15804 8.27936 4 7.89782 4 7.5V5ZM8.5 18V20H15.5V18H8.5Z" fill="white"/>
</svg>
